<svg xmlns="http://www.w3.org/2000/svg" version="1.1" xmlns:xlink="http://www.w3.org/1999/xlink" xmlns:svgjs="http://svgjs.dev/svgjs" width="128" height="128" viewBox="0 0 128 128"><g transform="matrix(0.8046875,0,0,0.8046875,12.333870967741937,16.509649674622466)"><svg viewBox="0 0 155 144" data-background-color="#ffffff" preserveAspectRatio="xMidYMid meet" height="118" width="128" xmlns="http://www.w3.org/2000/svg" xmlns:xlink="http://www.w3.org/1999/xlink"><g id="tight-bounds" transform="matrix(1,0,0,1,0.25,0.020909757887011438)"><svg viewBox="0 0 154.5 143.95818048422598" height="143.95818048422598" width="154.5"><g><svg viewBox="0 0 154.5 143.95818048422598" height="143.95818048422598" width="154.5"><g><svg viewBox="0 0 154.5 143.95818048422598" height="143.95818048422598" width="154.5"><g id="textblocktransform"><svg viewBox="0 0 154.5 143.95818048422598" height="143.95818048422598" width="154.5" id="textblock"><g><svg viewBox="0 0 154.5 143.95818048422598" height="143.95818048422598" width="154.5"><g transform="matrix(1,0,0,1,0,0)"><svg width="154.5" viewBox="1.1 -30.98 33.28 31" height="143.95818048422598" data-palette-color="#ed1703"><path d="M1.1 0L14.18 0 14.5-2.78 9.94-4.44 11.74-9.57 21.63-9.57 23.44-4.49 19.31-2.56 18.97 0.02 34.11 0.02 34.38-2.73 30.88-4.42 21.36-30.98 15.31-29.81 5.2-4.52 1.44-2.59 1.1 0ZM13.06-13.38L16.85-24.02 20.41-13.38 13.06-13.38Z" opacity="1" transform="matrix(1,0,0,1,0,0)" fill="#ed1703" class="undefined-text-0" data-fill-palette-color="primary" id="text-0"></path></svg></g></svg></g></svg></g></svg></g><g></g></svg></g><defs></defs></svg><rect width="154.5" height="143.95818048422598" fill="none" stroke="none" visibility="hidden"></rect></g></svg></g></svg>